<svg width="24" height="25" viewBox="0 0 24 25" fill="none" xmlns="http://www.w3.org/2000/svg">
<g clip-path="url(#clip0_370_2002)">
<path d="M18.3288 11.9256H20.0029C20.3814 11.9256 20.6893 11.6177 20.6893 11.2392V9.56509C20.6893 9.18662 20.3814 8.8787 20.0029 8.8787H18.3288C17.9503 8.8787 17.6424 9.18662 17.6424 9.56509V11.2392C17.6424 11.6177 17.9503 11.9256 18.3288 11.9256ZM18.3456 9.58183H19.9862V11.2225H18.3456V9.58183ZM18.3288 16.3787H20.0029C20.3814 16.3787 20.6893 16.0708 20.6893 15.6923V14.0182C20.6893 13.6397 20.3814 13.3318 20.0029 13.3318H18.3288C17.9503 13.3318 17.6424 13.6397 17.6424 14.0182V15.6923C17.6424 16.0708 17.9503 16.3787 18.3288 16.3787ZM18.3456 14.035H19.9862V15.6756H18.3456V14.035ZM13.5515 11.9256H15.2256C15.6041 11.9256 15.912 11.6177 15.912 11.2392V9.56509C15.912 9.18662 15.6041 8.8787 15.2256 8.8787H13.5515C13.173 8.8787 12.8651 9.18662 12.8651 9.56509V11.2392C12.8651 11.6177 13.173 11.9256 13.5515 11.9256ZM13.5682 9.58183H15.2089V11.2225H13.5682V9.58183ZM5.67098 17.5762H3.99689C3.61842 17.5762 3.3105 17.8841 3.3105 18.2626V19.9367C3.3105 20.3151 3.61842 20.623 3.99689 20.623H5.67098C6.04945 20.623 6.35737 20.3151 6.35737 19.9367V18.2626C6.35737 17.8841 6.04945 17.5762 5.67098 17.5762ZM5.65425 19.9199H4.01362V18.2793H5.65425V19.9199ZM5.67098 8.8787H3.99689C3.61842 8.8787 3.3105 9.18662 3.3105 9.56509V11.2392C3.3105 11.6177 3.61842 11.9256 3.99689 11.9256H5.67098C6.04945 11.9256 6.35737 11.6177 6.35737 11.2392V9.56509C6.35737 9.18658 6.04945 8.8787 5.67098 8.8787ZM5.65425 11.2225H4.01362V9.58183H5.65425V11.2225ZM13.5515 16.2743H15.2256C15.6041 16.2743 15.912 15.9664 15.912 15.5879V13.9138C15.912 13.5354 15.6041 13.2274 15.2256 13.2274H13.5515C13.173 13.2274 12.8651 13.5354 12.8651 13.9138V15.5879C12.8651 15.9664 13.173 16.2743 13.5515 16.2743ZM13.5682 13.9306H15.2089V15.5712H13.5682V13.9306ZM21.0385 1.74527H19.5354V1.20775C19.5354 0.61825 19.0558 0.138672 18.4663 0.138672H18.3049C17.7154 0.138672 17.2358 0.61825 17.2358 1.20775V1.74527H6.76397V1.20775C6.76397 0.61825 6.28439 0.138672 5.69489 0.138672H5.53345C4.94395 0.138672 4.46437 0.61825 4.46437 1.20775V1.74527H2.96133C1.99078 1.74527 1.20117 2.53487 1.20117 3.50542V22.3809C1.20117 23.3501 1.9897 24.1387 2.95898 24.1387H21.0409C22.0102 24.1387 22.7987 23.3501 22.7987 22.3809V3.50542C22.7987 2.53487 22.0091 1.74527 21.0385 1.74527ZM17.939 1.20775C17.939 1.00595 18.1031 0.841797 18.3049 0.841797H18.4663C18.6681 0.841797 18.8323 1.00595 18.8323 1.20775V1.74527H17.939V1.20775ZM5.16754 1.20775C5.16754 1.00595 5.3317 0.841797 5.5335 0.841797H5.69494C5.89673 0.841797 6.06089 1.00595 6.06089 1.20775V1.74527H5.16759V1.20775H5.16754ZM22.0956 22.3809C22.0956 22.9624 21.6224 23.4355 21.0409 23.4355H2.95894C2.37736 23.4355 1.90425 22.9624 1.90425 22.3809V22.3787C2.19881 22.6006 2.56495 22.7324 2.96133 22.7324H17.2152C17.6854 22.7324 18.1274 22.5493 18.4598 22.2168L22.0956 18.5811V22.3809ZM18.1011 21.5812C18.1287 21.4675 18.1437 21.3488 18.1437 21.2267V18.88C18.1437 18.4375 18.5037 18.0774 18.9463 18.0774H21.293C21.4151 18.0774 21.5337 18.0624 21.6475 18.0348L18.1011 21.5812ZM22.0956 6.76933H7.11553C6.92137 6.76933 6.76397 6.92673 6.76397 7.12089C6.76397 7.31505 6.92137 7.47245 7.11553 7.47245H22.0956V16.5717C22.0956 17.0143 21.7355 17.3743 21.293 17.3743H18.9463C18.116 17.3743 17.4405 18.0498 17.4405 18.88V21.2267C17.4405 21.6693 17.0805 22.0293 16.638 22.0293H2.96133C2.37848 22.0293 1.9043 21.5552 1.9043 20.9723V7.47245H5.70928C5.90344 7.47245 6.06084 7.31505 6.06084 7.12089C6.06084 6.92673 5.90344 6.76933 5.70928 6.76933H1.90425V3.50542C1.90425 2.92258 2.37844 2.44839 2.96128 2.44839H4.46437V3.48208C4.46437 4.07158 4.94395 4.55116 5.53345 4.55116C5.72761 4.55116 5.88501 4.39375 5.88501 4.19959C5.88501 4.00544 5.72761 3.84803 5.53345 3.84803C5.33165 3.84803 5.1675 3.68387 5.1675 3.48208V2.44839H17.2358V3.48208C17.2358 4.07158 17.7154 4.55116 18.3049 4.55116C18.4991 4.55116 18.6565 4.39375 18.6565 4.19959C18.6565 4.00544 18.4991 3.84803 18.3049 3.84803C18.1031 3.84803 17.939 3.68387 17.939 3.48208V2.44839H21.0385C21.6214 2.44839 22.0956 2.92258 22.0956 3.50542V6.76933ZM5.67098 13.2274H3.99689C3.61842 13.2274 3.3105 13.5354 3.3105 13.9138V15.5879C3.3105 15.9664 3.61842 16.2743 3.99689 16.2743H5.67098C6.04945 16.2743 6.35737 15.9664 6.35737 15.5879V13.9138C6.35737 13.5353 6.04945 13.2274 5.67098 13.2274ZM5.65425 15.5712H4.01362V13.9306H5.65425V15.5712ZM8.7742 11.9256H10.4483C10.8268 11.9256 11.1347 11.6177 11.1347 11.2392V9.56509C11.1347 9.18662 10.8268 8.8787 10.4483 8.8787H8.7742C8.39573 8.8787 8.08781 9.18662 8.08781 9.56509V11.2392C8.08781 11.6177 8.39573 11.9256 8.7742 11.9256ZM8.79093 9.58183H10.4316V11.2225H8.79093V9.58183ZM13.5678 19.9199C13.5591 19.7335 13.4052 19.5851 13.2166 19.5851C13.0225 19.5851 12.8651 19.7425 12.8651 19.9367C12.8651 20.3151 13.173 20.623 13.5515 20.623H15.2256C15.604 20.623 15.9119 20.3151 15.9119 19.9367V18.2626C15.9119 17.8841 15.604 17.5762 15.2256 17.5762H13.5515C13.173 17.5762 12.8651 17.8841 12.8651 18.2626V18.7454C12.8651 18.9395 13.0225 19.0969 13.2166 19.0969C13.4108 19.0969 13.5682 18.9395 13.5682 18.7454V18.2793H15.2088V19.9199H13.5678ZM8.7742 16.2743H10.4483C10.8268 16.2743 11.1347 15.9664 11.1347 15.5879V13.9138C11.1347 13.5354 10.8268 13.2274 10.4483 13.2274H8.7742C8.39573 13.2274 8.08781 13.5354 8.08781 13.9138V15.5879C8.08781 15.9664 8.39573 16.2743 8.7742 16.2743ZM8.79093 13.9306H10.4316V15.5712H8.79093V13.9306ZM8.7742 20.623H10.4483C10.8268 20.623 11.1347 20.3151 11.1347 19.9367V18.2626C11.1347 17.8841 10.8268 17.5762 10.4483 17.5762H8.7742C8.39573 17.5762 8.08781 17.8841 8.08781 18.2626V19.9367C8.08781 20.3151 8.39573 20.623 8.7742 20.623ZM8.79093 18.2793H10.4316V19.9199H8.79093V18.2793Z" fill="#FF9201"/>
</g>
<defs>
<clipPath id="clip0_370_2002">
<rect width="24" height="24" fill="white" transform="translate(0 0.138672)"/>
</clipPath>
</defs>
</svg>
