<svg width="25" height="26" viewBox="0 0 25 26" fill="none" xmlns="http://www.w3.org/2000/svg">
<path d="M1.79345 9.27293C1.78563 9.1339 1.80468 8.99086 1.85497 8.85183C2.72899 6.45524 4.28173 4.45817 6.24071 3.06288C8.19775 1.66859 10.5571 0.87207 13.0478 0.87207C16.3481 0.87207 19.3364 2.24779 21.499 4.47072C23.6616 6.69365 25 9.76529 25 13.1577C25 16.1626 23.9448 18.92 22.1938 21.0591C20.4165 23.2309 17.9224 24.7612 15.0884 25.2631C14.8223 25.3097 14.5625 25.2445 14.355 25.0999C14.6479 24.5253 14.8223 23.8628 14.8144 23.2098C17.146 22.7801 19.1953 21.5164 20.6572 19.7301C22.1074 17.9574 22.9819 15.6647 22.9819 13.1577C22.9819 10.338 21.8696 7.78478 20.0723 5.93728C18.2749 4.08977 15.791 2.94644 13.0478 2.94644C10.9712 2.94644 9.0078 3.60744 7.38378 4.76433C5.86376 5.84694 4.63866 7.36369 3.89208 9.17757C3.19726 9.06313 2.47411 9.07969 1.79345 9.27293ZM10.2388 12.4515V16.5199H10.8569C11.0771 16.5199 11.228 16.4923 11.3091 16.4376C11.3906 16.3824 11.4311 16.2569 11.4311 16.0602V12.4515H13.1714V15.4965C13.1714 15.9879 13.1396 16.3839 13.0757 16.6845C13.0117 16.9852 12.8931 17.2396 12.7187 17.4479C12.5449 17.6562 12.3071 17.8008 12.0054 17.8816C11.7036 17.9624 11.312 18.003 10.8306 18.003C10.3491 18.003 9.95898 17.9624 9.66015 17.8816C9.36181 17.8008 9.12499 17.6562 8.95116 17.4479C8.77734 17.2396 8.65819 16.9852 8.59423 16.6845C8.53075 16.3839 8.49853 15.9879 8.49853 15.4965V12.4515H10.2388ZM14.02 17.7777L14.2637 16.3462C14.7969 16.4793 15.2773 16.546 15.7036 16.546C16.1299 16.546 16.4736 16.5284 16.7349 16.4938V16.0602L15.9517 15.9909C15.2436 15.9272 14.7578 15.758 14.4941 15.4835C14.23 15.2084 14.0981 14.8024 14.0981 14.2644C14.0981 13.5245 14.2593 13.0156 14.581 12.7381C14.9028 12.4605 15.4497 12.3215 16.2212 12.3215C16.9927 12.3215 17.689 12.3938 18.3096 12.5383L18.0923 13.9261C17.5527 13.8397 17.1206 13.7961 16.7954 13.7961C16.4707 13.7961 16.1953 13.8106 15.9687 13.8397V14.2644L16.5957 14.3251C17.3555 14.4004 17.8804 14.5811 18.1704 14.8671C18.4604 15.1537 18.6055 15.5512 18.6055 16.0602C18.6055 16.4245 18.5561 16.7322 18.4575 16.9837C18.3589 17.2356 18.2417 17.4263 18.105 17.5563C17.9687 17.6863 17.7759 17.7862 17.5264 17.8555C17.2769 17.9252 17.0581 17.9669 16.8696 17.9815C16.6811 17.996 16.4302 18.003 16.1167 18.003C15.3628 18.003 14.6636 17.9277 14.02 17.7777ZM10.6318 9.88675L10.7051 10.7295C10.5 10.8168 10.2432 10.8604 9.93359 10.8604C9.6245 10.8604 9.37646 10.8268 9.18896 10.7596C9.00195 10.6928 8.85448 10.5879 8.74706 10.4439C8.64013 10.2998 8.56493 10.1307 8.52245 9.93694C8.48046 9.74271 8.45898 9.5033 8.45898 9.21922C8.45898 8.93464 8.48046 8.69474 8.52245 8.49899C8.56493 8.30325 8.64013 8.13361 8.74706 7.98956C8.95556 7.71201 9.33788 7.57298 9.89452 7.57298C10.0181 7.57298 10.1641 7.58553 10.3315 7.61062C10.4995 7.63572 10.6235 7.66684 10.7051 7.70348L10.5586 8.47139C10.3472 8.42471 10.1533 8.40112 9.97753 8.40112C9.80175 8.40112 9.67968 8.41768 9.61132 8.45131C9.54296 8.48494 9.50878 8.55169 9.50878 8.65207V9.96706C9.63573 9.99366 9.76464 10.0072 9.89452 10.0072C10.1714 10.0072 10.417 9.96706 10.6318 9.88675ZM11.9209 10.7852H10.8906L11.6816 7.64827H13.1904L13.981 10.7852H12.9512L12.8389 10.2883H12.0332L11.9209 10.7852ZM12.3125 8.61192L12.1318 9.49025H12.7353L12.5591 8.61192H12.3125ZM16.2661 10.7852H14.3135V7.64827H15.2895V9.98212H16.2661V10.7852ZM18.6343 10.7852H16.6811V7.64827H17.6577V9.98212H18.6343V10.7852ZM3.70849 17.0313C4.06591 17.872 4.49218 18.6886 5.062 19.4591C5.68114 20.2987 6.47802 21.0887 7.54345 21.8065C7.74511 21.938 7.96728 21.7688 8.12499 21.6383C8.21728 21.5615 8.33544 21.4366 8.46093 21.2985C8.95605 20.7605 9.56933 20.0935 10.2886 20.5417C10.3042 20.5512 10.3164 20.5622 10.332 20.5718L12.7012 22.348C12.7085 22.353 12.7163 22.3631 12.7236 22.3681C13.0322 22.6406 13.1309 23.0201 13.0908 23.4311C12.9814 24.4665 12.1909 25.3293 11.2529 25.6465C10.7588 25.8162 10.2222 25.8779 9.71044 25.8975C8.90722 25.9291 8.17431 25.77 7.44237 25.4458C6.72655 25.127 6.02196 24.6553 5.26171 24.0464L5.20556 24.0003C4.85644 23.7187 4.47997 23.4166 4.1162 23.0697C2.78319 21.7809 1.47802 19.9901 0.704578 18.0939C0.0556522 16.5023 -0.213391 14.8315 0.190906 13.3132C0.414051 12.4811 0.84911 11.7498 1.51903 11.3102C2.1035 10.9247 2.85302 10.7621 3.78075 10.9523C3.88769 10.9724 3.97704 11.0477 4.01708 11.148L5.33886 14.1444C5.54247 14.4867 5.53905 14.8024 5.37646 15.1015C5.24169 15.3465 4.99999 15.5578 4.68065 15.746C4.58544 15.8127 4.47313 15.8785 4.35595 15.9482C4.0664 16.1184 3.74706 16.3081 3.64257 16.5515C3.55858 16.7468 3.6328 16.8532 3.70849 17.0313Z" fill="white"/>
</svg>
