<svg width="18" height="22" viewBox="0 0 18 22" fill="none" xmlns="http://www.w3.org/2000/svg">
<g clip-path="url(#clip0_134_1371)">
<path fill-rule="evenodd" clip-rule="evenodd" d="M0.385865 1.72466H6.68218V0.673177C6.68218 0.30293 6.95987 0 7.30035 0H10.7766C11.1169 0 11.3948 0.302751 11.3948 0.673177V1.72484H17.6143C17.8269 1.72484 18.0002 1.91408 18.0002 2.14539V4.20682H0V2.14521C0 1.9139 0.17345 1.72466 0.385865 1.72466ZM1.4287 5.30037H16.7056C17.0241 5.30037 17.3133 5.58665 17.2845 5.9313L15.9916 21.3694C15.963 21.7143 15.7302 21.9998 15.4124 21.9998H2.70368C2.38572 21.9998 2.15259 21.7148 2.12431 21.3694L0.84933 5.9313C0.821051 5.5854 1.10992 5.30037 1.4287 5.30037ZM11.3568 7.69821H12.9788V19.3918H11.3568V7.69821ZM4.94407 7.69821H6.56627V19.3918H4.94407V7.69821ZM8.15001 7.69821H9.77255V19.3918H8.15001V7.69821Z" fill="white"/>
</g>
<defs>
<clipPath id="clip0_134_1371">
<rect width="18" height="22" fill="white"/>
</clipPath>
</defs>
</svg>
