<svg width="20" height="20" viewBox="0 0 20 20" fill="none" xmlns="http://www.w3.org/2000/svg">
<path fill-rule="evenodd" clip-rule="evenodd" d="M17.5356 0.214292C17.3793 0.0683387 17.2003 -0.0103777 17.0001 0.00110176C16.7999 0.00110176 16.6208 0.0798182 16.476 0.237251L15.2926 1.47376L18.6067 4.69949L19.7998 3.44003C19.9447 3.29407 20 3.1022 20 2.90049C20 2.69878 19.9219 2.50691 19.777 2.37243L17.5356 0.214292ZM1.35916 0.834184H9.5304V2.97265H2.37324C2.30487 2.97265 2.24139 3.00217 2.19582 3.04808C2.15024 3.094 2.12094 3.15796 2.12094 3.22684V17.6106C2.12094 17.6795 2.15024 17.7435 2.19582 17.7894C2.24139 17.8353 2.30487 17.8648 2.37324 17.8648H16.6501C16.7185 17.8648 16.782 17.8353 16.8275 17.7894C16.8731 17.7435 16.9024 17.6795 16.9024 17.6106V10.6754H19.025V18.6307C19.025 19.0095 18.8703 19.3489 18.6246 19.5966C18.3788 19.8442 18.0369 20 17.6658 20H1.35916C0.981525 20 0.646211 19.8442 0.400423 19.5966C0.154635 19.3506 0 19.0046 0 18.6307V2.20352C0 1.82306 0.154635 1.48523 0.400423 1.23761C0.644584 0.989977 0.988036 0.834184 1.35916 0.834184ZM11.3323 12.3104C10.8977 12.4563 10.4501 12.5908 10.0155 12.7384C9.58086 12.8844 9.14462 13.0303 8.69862 13.1763C7.66013 13.5141 7.09205 13.7043 6.96834 13.7388C6.84626 13.7732 6.92439 13.2894 7.17995 12.2776L8.00521 9.09613L8.07357 9.02561L11.3323 12.3087V12.3104ZM9.27973 7.76287L14.3957 2.41015L17.7098 5.62441L12.5368 11.0444L9.27973 7.76287Z" fill="white"/>
</svg>
