<svg width="25" height="26" viewBox="0 0 25 26" fill="none" xmlns="http://www.w3.org/2000/svg">
<path d="M5.89944 2.28812L4.67628 4.94874C4.64158 5.02467 4.58416 5.08977 4.51084 5.1363C4.43751 5.18284 4.35136 5.20886 4.26259 5.21128L1.18784 5.46796L3.53417 7.37126C3.5973 7.42256 3.64429 7.48879 3.67015 7.56291C3.696 7.63703 3.69976 7.71627 3.68101 7.79221L2.98732 10.6127L5.66102 9.1279C5.73459 9.08724 5.81879 9.06618 5.90439 9.06705C5.98999 9.06791 6.07368 9.09065 6.14629 9.13279L7.42419 9.84268L7.20682 10.7266L5.89944 10.0006L3.1089 11.5499C3.02943 11.5959 2.94048 11.6277 2.84785 11.6433C2.75048 11.659 2.64995 11.6575 2.55101 11.637C2.3489 11.5944 2.18469 11.4795 2.08311 11.3299C1.981 11.1789 1.94048 10.9911 1.98679 10.8048L2.71364 7.85039L0.283626 5.87962C0.258363 5.86202 0.235205 5.84197 0.214152 5.81997C0.172046 5.78037 0.134678 5.73539 0.104151 5.68699L0.0809933 5.64983C0.0425721 5.57943 0.0162561 5.50169 0.00572978 5.41907L0.00151923 5.37849C-0.0111124 5.19515 0.05573 5.02208 0.175731 4.88909C0.294679 4.7566 0.467311 4.66566 0.663628 4.64464L3.92996 4.37379L5.21049 1.58849C5.24891 1.50538 5.30207 1.4296 5.36944 1.36751C5.42576 1.31617 5.4926 1.2712 5.56839 1.23648L5.60628 1.21986C5.79628 1.14457 6.00155 1.1475 6.17997 1.21448C6.35629 1.28097 6.50681 1.41053 6.58734 1.58654L7.64314 3.88342L6.6705 3.96409L5.89944 2.28812ZM11.3637 18.929C11.3637 19.1563 11.1647 19.3411 10.92 19.3411C10.6753 19.3411 10.4763 19.1563 10.4763 18.929V18.1673C10.4526 18.1555 10.43 18.1418 10.4084 18.1257L9.5542 17.4823L8.40261 16.6047C8.1884 16.4405 7.94577 16.327 7.7184 16.285C7.57261 16.2581 7.43787 16.261 7.33261 16.3011C7.24734 16.3334 7.17366 16.3974 7.12419 16.4996C7.05945 16.6321 7.02945 16.8223 7.04734 17.0775C7.06313 17.3044 7.1484 17.5537 7.26103 17.7913C7.42787 18.1433 7.65524 18.466 7.82261 18.6738L11.2189 23.447C11.2572 23.5006 11.2812 23.5619 11.2889 23.6259C11.3563 24.1412 11.4742 24.5274 11.6479 24.7694C11.7742 24.945 11.9379 25.0339 12.1416 25.0291C13.8632 25.0291 15.7311 24.963 17.4342 25.0291C17.7611 25.0242 18.0606 24.9347 18.3311 24.7616C18.6332 24.568 18.9095 24.2673 19.159 23.862L19.2227 23.7608C19.8774 22.7126 20.5127 21.6952 20.5795 20.4871L20.5458 19.0864L20.5411 19.0248L20.5458 18.6948C20.5579 17.6696 20.5769 16.1002 19.659 15.9467H19.0642C19.0821 16.3847 19.0548 16.8374 19.03 17.2486C19.0153 17.4911 19.0016 17.7165 19.0016 17.9257C19.0016 18.1531 18.8027 18.3379 18.5574 18.3379C18.3127 18.3379 18.1137 18.1531 18.1137 17.9257C18.1137 17.7317 18.1295 17.4769 18.1463 17.2031C18.2084 16.1818 18.2911 14.8158 17.5232 14.6804H16.9411C16.9027 14.6804 16.8648 14.676 16.829 14.6672C16.8653 15.159 16.8337 15.6802 16.8053 16.1466C16.7905 16.3896 16.7769 16.615 16.7769 16.8242C16.7769 17.0516 16.5779 17.2364 16.3332 17.2364C16.0879 17.2364 15.889 17.0516 15.889 16.8242C15.889 16.6302 15.9048 16.3754 15.9216 16.1016C15.9837 15.0803 16.0663 13.7143 15.2984 13.5794H14.7163C14.6763 13.5794 14.6374 13.5745 14.6005 13.5652V15.6919C14.6005 15.9198 14.4016 16.1041 14.1569 16.1041C13.9116 16.1041 13.7132 15.9198 13.7132 15.6919V11.4126C13.7132 10.6958 13.3979 10.2431 12.9958 10.0544C12.8484 9.98544 12.6895 9.95024 12.5326 9.95024C12.3768 9.95024 12.2189 9.98446 12.0721 10.0534C11.6747 10.2411 11.3637 10.6958 11.3637 11.4297V18.929ZM10.4763 17.1181V12.0423L8.6184 13.0739C8.53616 13.1194 8.43783 13.1328 8.34498 13.111C8.25213 13.0893 8.17235 13.0343 8.12314 12.958C8.07511 12.8837 8.06002 12.795 8.08103 12.7106L9.0884 8.61553L5.68155 5.85224C5.53155 5.7305 5.51628 5.5188 5.64786 5.37898C5.67957 5.34515 5.71827 5.3176 5.76167 5.29794C5.80507 5.27829 5.85228 5.26694 5.90049 5.26457L10.391 4.89056L12.1674 1.02772C12.2458 0.856604 12.4579 0.776912 12.6416 0.849759C12.7321 0.885449 12.7989 0.951451 12.8337 1.02968L14.609 4.89056L19.1116 5.26604C19.31 5.28168 19.4574 5.44449 19.44 5.62881C19.4322 5.71521 19.3884 5.79536 19.3179 5.85224L15.9121 8.61553L16.9195 12.7106C16.9356 12.7759 16.9303 12.8442 16.9044 12.9067C16.8784 12.9692 16.8329 13.0231 16.7737 13.0614C16.7145 13.0997 16.6444 13.1207 16.5723 13.1217C16.5001 13.1227 16.4293 13.1037 16.369 13.067L14.6005 12.0848V12.7688C14.6374 12.7595 14.6763 12.7551 14.7163 12.7551H15.3279C15.3632 12.7551 15.3969 12.7585 15.4295 12.7658C16.1642 12.8749 16.5305 13.3296 16.7037 13.9202C16.7721 13.8796 16.8542 13.8561 16.9411 13.8561H17.5527C17.5879 13.8561 17.6216 13.86 17.6542 13.8669C18.4363 13.9832 18.8006 14.4907 18.9595 15.137C18.9969 15.1277 19.0363 15.1224 19.0769 15.1224H19.689C19.7237 15.1224 19.7579 15.1263 19.7906 15.1336C21.4695 15.383 21.4453 17.3924 21.4295 18.7026C21.4274 19.3089 21.4569 19.9122 21.4637 20.5179C21.389 21.9313 20.699 23.0358 19.9885 24.1735L19.9285 24.2712C19.6137 24.7817 19.249 25.1718 18.8332 25.4378C18.4127 25.7062 17.9474 25.8445 17.4384 25.8499L12.1521 25.8519C11.6242 25.8602 11.2147 25.6456 10.9137 25.2266C10.671 24.8887 10.51 24.416 10.4231 23.8205L7.1105 19.1637C6.91524 18.9207 6.64892 18.5423 6.44997 18.1228C6.3005 17.8074 6.18681 17.4652 6.16313 17.1293C6.13523 16.7318 6.19523 16.4111 6.31681 16.1613C6.46787 15.8508 6.70892 15.6479 6.99997 15.5379C7.27155 15.4353 7.57892 15.4201 7.8884 15.4773C8.25893 15.5458 8.64156 15.7208 8.96735 15.9706L10.4763 17.1181ZM18 20.2114C18 20.0256 18.1627 19.8745 18.3627 19.8745C18.5621 19.8745 18.7248 20.0256 18.7248 20.2114V21.7505C18.7231 21.8387 18.6843 21.9229 18.6165 21.9848C18.5487 22.0467 18.4574 22.0814 18.3624 22.0814C18.2673 22.0814 18.1761 22.0467 18.1083 21.9848C18.0405 21.9229 18.0016 21.8387 18 21.7505V20.2114ZM15.859 19.5308C15.859 19.3455 16.0211 19.1945 16.2211 19.1945C16.4211 19.1945 16.5832 19.3455 16.5832 19.5308V21.75C16.5832 21.9357 16.4211 22.0868 16.2211 22.0868C16.0211 22.0868 15.859 21.9357 15.859 21.75V19.5308ZM19.789 1.58849L21.07 4.37379L24.3364 4.64464C24.5327 4.66566 24.7048 4.7566 24.8243 4.88909C24.9443 5.02159 25.0111 5.19515 24.9985 5.37849L24.9943 5.41907C24.9837 5.50169 24.9574 5.57943 24.919 5.64983L24.8953 5.68748C24.8653 5.73539 24.8285 5.77988 24.7869 5.81899C24.7658 5.84099 24.7422 5.86153 24.7164 5.87962L22.2864 7.85039L23.0132 10.8048C23.0595 10.9911 23.0185 11.1793 22.9169 11.3299C22.8645 11.4072 22.7962 11.4741 22.7159 11.5267C22.6356 11.5794 22.5449 11.6169 22.449 11.637C22.35 11.6575 22.249 11.659 22.1522 11.6433C22.0597 11.6275 21.9711 11.5958 21.8911 11.5499L19.1006 10.0006L17.7979 10.7242L17.5774 9.8417L18.8537 9.13279C18.9263 9.09065 19.01 9.06791 19.0956 9.06705C19.1812 9.06618 19.2654 9.08724 19.339 9.1279L22.0127 10.6127L21.3185 7.79221C21.2821 7.64212 21.3332 7.47882 21.4658 7.37126L23.8122 5.46796L20.7374 5.21128C20.6486 5.20886 20.5625 5.18284 20.4892 5.1363C20.4158 5.08977 20.3584 5.02467 20.3237 4.94874L19.1006 2.28812L18.3295 3.96506L17.3563 3.8839L18.4127 1.58654C18.4932 1.41053 18.6432 1.28146 18.8206 1.21497C18.9985 1.1475 19.2037 1.14457 19.3937 1.21986L19.4306 1.23599C19.5063 1.27071 19.5742 1.31617 19.63 1.368C19.6979 1.4296 19.7506 1.50538 19.789 1.58849Z" fill="white"/>
</svg>
