<svg width="28" height="28" viewBox="0 0 28 28" fill="none" xmlns="http://www.w3.org/2000/svg">
<g clip-path="url(#clip0_63_928)">
<path fill-rule="evenodd" clip-rule="evenodd" d="M5.78558 0.519708L7.79352 2.52765C4.92903 4.56372 3.01929 7.8215 2.80862 11.5427H0.000244141C0.196804 7.0492 2.41541 3.08936 5.78558 0.519708ZM22.2147 0.519708C25.5708 3.08936 27.7894 7.0492 28.0001 11.5427H25.1917C24.981 7.82158 23.0573 4.56381 20.2208 2.52765L22.2147 0.519708ZM16.1065 2.41542L16.1064 3.37025C20.1225 4.32508 22.4254 7.93398 22.4254 12.2448V19.2658L25.2338 22.0742V23.4784L2.76654 23.4784V22.0742L5.57491 19.2658V12.2449C5.57491 7.91986 7.86374 4.32508 11.8938 3.37025V2.41542C11.8938 1.24984 12.8347 0.309036 14.0002 0.309036C15.1656 0.309036 16.1065 1.24992 16.1065 2.41542ZM11.1777 24.8827H16.7945C16.7945 25.2759 16.7243 25.6409 16.584 25.978C16.2188 26.8205 15.4747 27.4383 14.5619 27.6349C14.3794 27.677 14.1968 27.691 14.0002 27.6911C12.4415 27.6911 11.1918 26.4273 11.1777 24.8828V24.8827Z" fill="#FF9201"/>
</g>
<defs>
<clipPath id="clip0_63_928">
<rect width="28" height="28" fill="white"/>
</clipPath>
</defs>
</svg>
