<svg width="24" height="25" viewBox="0 0 24 25" fill="none" xmlns="http://www.w3.org/2000/svg">
<g clip-path="url(#clip0_370_1984)">
<path d="M10.7107 9.82417L13.5607 6.97417C13.6099 6.92671 13.6491 6.86994 13.6761 6.80716C13.7031 6.74439 13.7173 6.67686 13.7179 6.60854C13.7185 6.54021 13.7055 6.47245 13.6796 6.40921C13.6537 6.34597 13.6155 6.28852 13.5672 6.2402C13.5189 6.19189 13.4614 6.15368 13.3982 6.12781C13.335 6.10194 13.2672 6.08893 13.1989 6.08953C13.1305 6.09013 13.063 6.10434 13.0002 6.13131C12.9375 6.15829 12.8807 6.19751 12.8332 6.24667L9.98324 9.09667C9.88677 9.19309 9.83255 9.32389 9.83252 9.46028C9.83248 9.59668 9.88663 9.72751 9.98306 9.82398C10.0795 9.92045 10.2103 9.97467 10.3467 9.9747C10.4831 9.97474 10.6139 9.92059 10.7104 9.82417H10.7107Z" fill="#FF9201"/>
<path d="M15.3642 9.40117C15.4883 9.40132 15.6097 9.36463 15.713 9.29575C15.8163 9.22687 15.8968 9.1289 15.9444 9.01423C15.992 8.89956 16.0045 8.77335 15.9803 8.65159C15.9561 8.52982 15.8963 8.41796 15.8085 8.33018C15.7208 8.24239 15.6089 8.18263 15.4871 8.15844C15.3654 8.13426 15.2392 8.14675 15.1245 8.19432C15.0098 8.2419 14.9118 8.32243 14.843 8.42572C14.7741 8.529 14.7374 8.6504 14.7375 8.77455C14.7377 8.94068 14.8038 9.09995 14.9213 9.21742C15.0388 9.33489 15.198 9.40097 15.3642 9.40117Z" fill="#FF9201"/>
<path d="M23.4855 10.8584H23.2774C23.2277 10.8583 23.1792 10.8435 23.138 10.8158C23.0968 10.7882 23.0646 10.749 23.0456 10.7031C23.0266 10.6573 23.0216 10.6068 23.0312 10.5581C23.0408 10.5094 23.0646 10.4646 23.0996 10.4294L23.8496 9.67942C23.8974 9.6317 23.9353 9.57503 23.9612 9.51265C23.9871 9.45027 24.0004 9.38339 24.0004 9.31586C24.0004 9.24832 23.9871 9.18145 23.9612 9.11907C23.9353 9.05668 23.8974 9.00001 23.8496 8.9523L22.7396 7.84305C22.6558 7.75903 22.5454 7.7066 22.4273 7.69464C22.3092 7.68268 22.1906 7.71193 22.0916 7.77742C21.8635 7.92812 21.5959 8.00821 21.3225 8.00767C20.9812 8.00411 20.652 7.88034 20.3929 7.65812C20.1338 7.43591 19.9613 7.12947 19.9058 6.79267C19.88 6.62562 19.8885 6.4551 19.9305 6.29139C19.9725 6.12768 20.0473 5.97419 20.1502 5.84017C20.2164 5.741 20.2462 5.62201 20.2347 5.50337C20.2231 5.38472 20.1709 5.27372 20.0869 5.18917L18.9495 4.05217C18.8657 3.96812 18.7554 3.91569 18.6374 3.90379C18.5193 3.89189 18.4007 3.92127 18.3019 3.98692C18.0734 4.13802 17.8055 4.21837 17.5316 4.21792C17.1909 4.21481 16.8622 4.09136 16.6036 3.86938C16.345 3.64739 16.1733 3.34116 16.1186 3.0048C16.0937 2.83685 16.1024 2.66561 16.1442 2.50106C16.1861 2.3365 16.2602 2.18192 16.3624 2.0463C16.4273 1.94734 16.4562 1.82906 16.4441 1.71133C16.4321 1.5936 16.3799 1.48359 16.2964 1.3998L15.1875 0.288671C15.1398 0.240868 15.083 0.202945 15.0206 0.17707C14.9582 0.151196 14.8913 0.137878 14.8237 0.137878C14.7562 0.137878 14.6893 0.151196 14.6269 0.17707C14.5645 0.202945 14.5077 0.240868 14.46 0.288671L3.963 10.7849C3.93979 10.8085 3.91213 10.8273 3.88162 10.8402C3.85112 10.8531 3.81836 10.8598 3.78525 10.8599H0.5145C0.378306 10.8599 0.247667 10.9139 0.151223 11.0101C0.0547784 11.1062 0.000397068 11.2367 0 11.3729V12.9427C0.000668398 13.062 0.0425417 13.1774 0.118532 13.2694C0.194522 13.3614 0.299961 13.4243 0.417 13.4474C0.657416 13.5001 0.880077 13.6142 1.06329 13.7786C1.24651 13.9429 1.38403 14.1519 1.46246 14.3852C1.5409 14.6185 1.55757 14.8682 1.51085 15.1098C1.46413 15.3515 1.35561 15.5769 1.19587 15.7642C0.993563 15.9968 0.713794 16.1483 0.408375 16.1905C0.293018 16.2152 0.189586 16.2786 0.115288 16.3703C0.0409894 16.4619 0.000303829 16.5762 0 16.6942L0 18.3025C0.000668398 18.4219 0.0425417 18.5373 0.118532 18.6292C0.194522 18.7212 0.299961 18.7841 0.417 18.8073C0.657452 18.86 0.880141 18.9742 1.06337 19.1386C1.24659 19.303 1.38411 19.512 1.46251 19.7454C1.54091 19.9787 1.55752 20.2284 1.51073 20.4701C1.46393 20.7118 1.35533 20.9372 1.1955 21.1244C0.993436 21.3571 0.713953 21.5087 0.40875 21.5512C0.293449 21.5757 0.190027 21.639 0.115669 21.7305C0.0413103 21.822 0.000493274 21.9362 0 22.054L0 23.6242C0 23.7606 0.0542061 23.8915 0.150694 23.988C0.247181 24.0845 0.378046 24.1387 0.5145 24.1387H23.4855C23.622 24.1387 23.7528 24.0845 23.8493 23.988C23.9458 23.8915 24 23.7606 24 23.6242V22.054C23.9993 21.9344 23.9573 21.8187 23.881 21.7265C23.8047 21.6343 23.6989 21.5713 23.5815 21.5482C23.3414 21.4951 23.1191 21.3808 22.9362 21.2164C22.7533 21.052 22.6161 20.8431 22.5379 20.61C22.4597 20.3768 22.4431 20.1274 22.4898 19.886C22.5365 19.6445 22.645 19.4193 22.8045 19.2322C23.0068 18.9994 23.2865 18.8478 23.592 18.8054C23.7072 18.7807 23.8104 18.7174 23.8846 18.6259C23.9588 18.5344 23.9995 18.4203 24 18.3025V16.6942C23.9992 16.5746 23.9571 16.4589 23.8809 16.3668C23.8046 16.2747 23.6988 16.2118 23.5815 16.1887C23.3414 16.1356 23.1191 16.0213 22.9362 15.8569C22.7533 15.6925 22.6161 15.4836 22.5379 15.2505C22.4597 15.0173 22.4431 14.7679 22.4898 14.5265C22.5365 14.285 22.645 14.0598 22.8045 13.8727C23.0068 13.6399 23.2865 13.4882 23.592 13.4455C23.7073 13.421 23.8106 13.3577 23.8849 13.2662C23.9591 13.1747 23.9998 13.0605 24 12.9427V11.3729C23.9996 11.2366 23.9453 11.106 23.8489 11.0096C23.7525 10.9131 23.6218 10.8588 23.4855 10.8584ZM5.775 10.4294L14.6453 1.55805C14.6686 1.53469 14.6963 1.51616 14.7268 1.50352C14.7573 1.49087 14.79 1.48437 14.823 1.48437C14.856 1.48437 14.8887 1.49087 14.9192 1.50352C14.9497 1.51616 14.9774 1.53469 15.0007 1.55805C15.0892 1.67055 15.3191 1.7853 15.2423 2.00242C15.1118 2.36917 15.0715 2.7619 15.1246 3.14752C15.1777 3.53314 15.3227 3.90033 15.5474 4.21817C15.7721 4.53601 16.07 4.79517 16.4158 4.97381C16.7617 5.15246 17.1454 5.24536 17.5346 5.24467C18.2674 5.24467 18.4058 4.96305 18.6079 5.1648C18.8494 5.44792 19.1156 5.55742 19.0324 5.79217C18.9021 6.15891 18.8617 6.55158 18.9148 6.93716C18.9678 7.32273 19.1127 7.68992 19.3372 8.00785C19.5617 8.32577 19.8593 8.58513 20.2049 8.7641C20.5505 8.94307 20.934 9.03642 21.3232 9.0363C22.0485 9.0363 22.1951 8.75392 22.3969 8.95492C22.4659 9.03367 22.8094 9.26392 22.5806 9.49305L21.8224 10.2524L21.45 10.6248C21.3759 10.6989 21.2879 10.7577 21.1911 10.7978C21.0942 10.8379 20.9904 10.8585 20.8856 10.8584H5.95088C5.9014 10.8579 5.85316 10.8428 5.81221 10.8151C5.77126 10.7873 5.73941 10.748 5.72064 10.7023C5.70187 10.6565 5.69702 10.6062 5.70669 10.5576C5.71635 10.5091 5.74012 10.4645 5.775 10.4294ZM22.971 12.3974C22.971 12.4418 22.9593 12.4853 22.9371 12.5236C22.9148 12.562 22.8828 12.5937 22.8442 12.6157C22.5565 12.7506 22.2951 12.9356 22.0721 13.162C21.8167 13.4441 21.6306 13.7818 21.5285 14.1483C21.4264 14.5148 21.4112 14.9001 21.484 15.2735C21.5568 15.647 21.7156 15.9983 21.9479 16.2997C22.1802 16.601 22.4795 16.8441 22.8221 17.0095C22.8664 17.0297 22.904 17.0621 22.9306 17.1029C22.9571 17.1437 22.9715 17.1911 22.9721 17.2398V17.7055C22.9786 17.7623 22.9677 17.8196 22.9409 17.87C22.9142 17.9204 22.8727 17.9615 22.8221 17.9879C22.4795 18.1533 22.1802 18.3964 21.9479 18.6977C21.7156 18.999 21.5568 19.3503 21.484 19.7237C21.4112 20.0971 21.4264 20.4824 21.5285 20.8489C21.6306 21.2154 21.8167 21.553 22.0721 21.835C22.2952 22.0616 22.5567 22.2466 22.8446 22.3814C22.8832 22.4034 22.9152 22.4353 22.9374 22.4737C22.9597 22.5121 22.9714 22.5557 22.9714 22.6C22.9556 22.6713 23.0573 23.11 22.7201 23.11H1.27988C0.933375 23.11 1.04775 22.6852 1.029 22.6C1.02901 22.5557 1.04073 22.5121 1.06299 22.4737C1.08525 22.4353 1.11724 22.4035 1.15575 22.3814C1.44365 22.2465 1.70523 22.0613 1.92825 21.8347C2.18348 21.5526 2.36948 21.215 2.47148 20.8486C2.57349 20.4821 2.5887 20.097 2.51591 19.7236C2.44312 19.3503 2.28433 18.999 2.05214 18.6977C1.81994 18.3964 1.52074 18.1534 1.17825 17.9879C1.13401 17.9677 1.09643 17.9353 1.06987 17.8945C1.04332 17.8538 1.02888 17.8063 1.02825 17.7577V17.2915C1.0217 17.2349 1.03254 17.1776 1.05933 17.1272C1.08612 17.0768 1.1276 17.0358 1.17825 17.0095C1.52074 16.844 1.81995 16.6009 2.05214 16.2996C2.28433 15.9983 2.44312 15.647 2.51591 15.2737C2.5887 14.9003 2.57349 14.5151 2.47148 14.1486C2.36948 13.7821 2.18348 13.4445 1.92825 13.1624C1.70523 12.9358 1.44365 12.7506 1.15575 12.6157C1.11722 12.5937 1.0852 12.562 1.06293 12.5236C1.04067 12.4853 1.02896 12.4418 1.029 12.3974C1.04475 12.3254 0.943125 11.8874 1.27988 11.8874H22.7197C23.0666 11.8874 22.9522 12.3123 22.971 12.3974Z" fill="#FF9201"/>
<path d="M5.82703 14.9512H18.1724C18.2411 14.953 18.3095 14.9411 18.3735 14.9161C18.4375 14.8911 18.4959 14.8535 18.5452 14.8056C18.5944 14.7576 18.6336 14.7003 18.6603 14.637C18.687 14.5736 18.7008 14.5056 18.7008 14.4369C18.7008 14.3681 18.687 14.3001 18.6603 14.2368C18.6336 14.1734 18.5944 14.1161 18.5452 14.0682C18.4959 14.0202 18.4375 13.9827 18.3735 13.9576C18.3095 13.9326 18.2411 13.9207 18.1724 13.9226H5.82703C5.69303 13.9262 5.56573 13.9819 5.47223 14.078C5.37873 14.1741 5.32642 14.3028 5.32642 14.4369C5.32642 14.5709 5.37873 14.6997 5.47223 14.7957C5.56573 14.8918 5.69303 14.9476 5.82703 14.9512Z" fill="#FF9201"/>
<path d="M18.1726 20.0471H5.82724C5.69079 20.0471 5.55993 20.1013 5.46344 20.1978C5.36695 20.2942 5.31274 20.4251 5.31274 20.5616C5.31274 20.698 5.36695 20.8289 5.46344 20.9254C5.55993 21.0219 5.69079 21.0761 5.82724 21.0761H18.1726C18.3091 21.0761 18.4399 21.0219 18.5364 20.9254C18.6329 20.8289 18.6871 20.698 18.6871 20.5616C18.6871 20.4251 18.6329 20.2942 18.5364 20.1978C18.4399 20.1013 18.3091 20.0471 18.1726 20.0471Z" fill="#FF9201"/>
<path d="M5.82757 18.1259C5.95165 18.1259 6.07295 18.0891 6.17612 18.0202C6.27929 17.9512 6.3597 17.8533 6.40718 17.7386C6.45467 17.624 6.46709 17.4978 6.44288 17.3761C6.41868 17.2544 6.35893 17.1427 6.27119 17.0549C6.18345 16.9672 6.07166 16.9074 5.94996 16.8832C5.82826 16.859 5.70212 16.8714 5.58748 16.9189C5.47285 16.9664 5.37486 17.0468 5.30593 17.15C5.23699 17.2532 5.2002 17.3744 5.2002 17.4985C5.2002 17.6649 5.26629 17.8245 5.38395 17.9422C5.5016 18.0598 5.66118 18.1259 5.82757 18.1259Z" fill="#FF9201"/>
<path d="M7.25781 17.4986C7.25774 17.6227 7.29448 17.744 7.36339 17.8473C7.4323 17.9505 7.53027 18.031 7.64493 18.0785C7.75958 18.126 7.88576 18.1385 8.00749 18.1143C8.12922 18.0901 8.24105 18.0303 8.32881 17.9426C8.41657 17.8548 8.47633 17.743 8.50052 17.6212C8.52472 17.4995 8.51226 17.3733 8.46473 17.2587C8.4172 17.144 8.33673 17.046 8.2335 16.9771C8.13027 16.9082 8.00893 16.8715 7.88481 16.8716C7.71855 16.8717 7.55913 16.9377 7.44157 17.0553C7.324 17.1729 7.25791 17.3323 7.25781 17.4986Z" fill="#FF9201"/>
<path d="M9.31543 17.4986C9.31536 17.6227 9.3521 17.744 9.42101 17.8473C9.48991 17.9505 9.58789 18.031 9.70255 18.0785C9.8172 18.126 9.94338 18.1385 10.0651 18.1143C10.1868 18.0901 10.2987 18.0303 10.3864 17.9426C10.4742 17.8548 10.534 17.743 10.5581 17.6212C10.5823 17.4995 10.5699 17.3733 10.5224 17.2587C10.4748 17.144 10.3944 17.046 10.2911 16.9771C10.1879 16.9082 10.0665 16.8715 9.94243 16.8716C9.77614 16.8716 9.61666 16.9376 9.49907 17.0552C9.38149 17.1728 9.31543 17.3323 9.31543 17.4986Z" fill="#FF9201"/>
<path d="M11.3726 17.4986C11.3725 17.6227 11.4092 17.744 11.4781 17.8472C11.547 17.9504 11.645 18.0309 11.7596 18.0784C11.8742 18.126 12.0004 18.1385 12.1221 18.1143C12.2438 18.0901 12.3557 18.0304 12.4434 17.9427C12.5312 17.855 12.591 17.7432 12.6152 17.6215C12.6395 17.4998 12.6271 17.3736 12.5796 17.2589C12.5321 17.1443 12.4517 17.0463 12.3485 16.9773C12.2454 16.9084 12.124 16.8716 11.9999 16.8716C11.8336 16.8716 11.6741 16.9376 11.5564 17.0552C11.4388 17.1727 11.3727 17.3322 11.3726 17.4986Z" fill="#FF9201"/>
<path d="M13.4302 17.4986C13.4301 17.6227 13.4668 17.744 13.5357 17.8472C13.6046 17.9504 13.7026 18.0309 13.8172 18.0784C13.9318 18.126 14.058 18.1385 14.1797 18.1143C14.3014 18.0901 14.4133 18.0304 14.501 17.9427C14.5888 17.855 14.6486 17.7432 14.6729 17.6215C14.6971 17.4998 14.6847 17.3736 14.6372 17.2589C14.5897 17.1443 14.5093 17.0463 14.4061 16.9773C14.303 16.9084 14.1817 16.8716 14.0576 16.8716C13.8912 16.8716 13.7317 16.9376 13.6141 17.0552C13.4964 17.1727 13.4303 17.3322 13.4302 17.4986Z" fill="#FF9201"/>
<path d="M15.4875 17.4986C15.4875 17.6227 15.5242 17.744 15.5931 17.8472C15.662 17.9504 15.7599 18.0309 15.8746 18.0784C15.9892 18.126 16.1154 18.1385 16.2371 18.1143C16.3588 18.0901 16.4706 18.0304 16.5584 17.9427C16.6462 17.855 16.706 17.7432 16.7302 17.6215C16.7545 17.4998 16.7421 17.3736 16.6946 17.2589C16.6471 17.1443 16.5667 17.0463 16.4635 16.9773C16.3603 16.9084 16.239 16.8716 16.1149 16.8716C15.9486 16.8716 15.7891 16.9376 15.6714 17.0552C15.5538 17.1727 15.4876 17.3322 15.4875 17.4986Z" fill="#FF9201"/>
<path d="M18.1729 16.8716C18.0488 16.8715 17.9275 16.9082 17.8242 16.9771C17.721 17.046 17.6405 17.144 17.593 17.2587C17.5455 17.3733 17.533 17.4995 17.5572 17.6212C17.5814 17.743 17.6412 17.8548 17.7289 17.9426C17.8167 18.0303 17.9285 18.0901 18.0502 18.1143C18.172 18.1385 18.2981 18.126 18.4128 18.0785C18.5274 18.031 18.6254 17.9505 18.6943 17.8473C18.7632 17.744 18.8 17.6227 18.7999 17.4986C18.7999 17.3323 18.7339 17.1728 18.6163 17.0552C18.4987 16.9376 18.3392 16.8716 18.1729 16.8716Z" fill="#FF9201"/>
</g>
<defs>
<clipPath id="clip0_370_1984">
<rect width="24" height="24" fill="white" transform="translate(0 0.138672)"/>
</clipPath>
</defs>
</svg>
