<svg width="45" height="45" viewBox="0 0 45 45" fill="none" xmlns="http://www.w3.org/2000/svg">
<circle cx="22.5" cy="22.5" r="22.5" fill="#1E487F"/>
<g clip-path="url(#clip0_370_2023)">
<path d="M14.6055 29.7844H12.5273C12.3271 29.7844 12.1287 29.7421 11.9438 29.66C11.7588 29.5778 11.5907 29.4574 11.4492 29.3057L11.4023 29.2514C11.1426 28.9487 10.999 28.5523 11 28.1414V18.4084C11.0001 18.1936 11.0399 17.9809 11.117 17.7825C11.1941 17.5841 11.307 17.404 11.4492 17.2524L11.4981 17.2043C11.7784 16.9274 12.1459 16.7737 12.5273 16.7737H14.9316C14.9143 16.6716 14.9058 16.5681 14.9063 16.4643V12.7016C14.9064 12.4792 14.9477 12.259 15.0278 12.0537C15.1079 11.8485 15.2253 11.6623 15.3731 11.5059C15.5186 11.347 15.6921 11.2205 15.8835 11.1337C16.0749 11.0469 16.2804 11.0014 16.4883 11H29.5117C29.9315 11.0011 30.3338 11.1801 30.6306 11.4978C30.9275 11.8155 31.0947 12.246 31.0957 12.6953V16.4581C31.0955 16.5619 31.0864 16.6654 31.0684 16.7674H33.4727C33.8764 16.7683 34.2634 16.9404 34.5488 17.2461C34.691 17.3974 34.8038 17.5772 34.8809 17.7752C34.958 17.9732 34.9978 18.1855 34.9981 18.4001V28.1414C34.997 28.5746 34.8358 28.9897 34.5496 29.2961C34.2634 29.6024 33.8755 29.775 33.4707 29.7761H31.3945V34.0217C31.3946 34.1491 31.3712 34.2752 31.3256 34.3929C31.28 34.5105 31.2132 34.6174 31.1289 34.7073C31.1049 34.7326 31.0794 34.7564 31.0527 34.7784C30.8924 34.915 30.6932 34.9887 30.4883 34.9875H15.5117C15.3927 34.9875 15.2749 34.9624 15.1649 34.9137C15.055 34.8649 14.9552 34.7933 14.8711 34.7032C14.8469 34.678 14.8246 34.6508 14.8047 34.6216C14.6771 34.45 14.6082 34.2368 14.6094 34.0175V29.7844H14.6055ZM16.2734 16.7737H29.7324L29.7695 16.7382C29.8378 16.6657 29.8764 16.5672 29.877 16.4643V12.7016C29.8764 12.5981 29.8378 12.499 29.7694 12.4258C29.701 12.3526 29.6084 12.3112 29.5117 12.3107H16.4883C16.3915 12.3109 16.2988 12.3523 16.2305 12.4257C16.1626 12.4991 16.1247 12.5983 16.125 12.7016V16.4643C16.1251 16.5153 16.1346 16.5658 16.153 16.6128C16.1715 16.6598 16.1985 16.7024 16.2324 16.7382L16.2695 16.7737H16.2734ZM18.0898 31.764C17.9655 31.764 17.8463 31.7112 17.7584 31.6171C17.6705 31.523 17.6211 31.3954 17.6211 31.2623C17.6211 31.1293 17.6705 31.0017 17.7584 30.9076C17.8463 30.8135 17.9655 30.7606 18.0898 30.7606H23.4297C23.554 30.7606 23.6732 30.8135 23.7612 30.9076C23.8491 31.0017 23.8984 31.1293 23.8984 31.2623C23.8984 31.3954 23.8491 31.523 23.7612 31.6171C23.6732 31.7112 23.554 31.764 23.4297 31.764H18.0898ZM18.0898 28.7204C17.9655 28.7204 17.8463 28.6676 17.7584 28.5735C17.6705 28.4794 17.6211 28.3518 17.6211 28.2187C17.6211 28.0857 17.6705 27.958 17.7584 27.864C17.8463 27.7699 17.9655 27.717 18.0898 27.717H27.916C28.0403 27.717 28.1596 27.7699 28.2475 27.864C28.3354 27.958 28.3848 28.0857 28.3848 28.2187C28.3848 28.3518 28.3354 28.4794 28.2475 28.5735C28.1596 28.6676 28.0403 28.7204 27.916 28.7204H18.0898ZM12.3809 23.67H33.6191V18.4084C33.6193 18.3875 33.6156 18.3668 33.6082 18.3474C33.6008 18.328 33.5899 18.3104 33.5762 18.2955C33.5485 18.2665 33.5114 18.25 33.4727 18.2495H12.5273C12.4948 18.2498 12.4632 18.2616 12.4375 18.283L12.4238 18.2976C12.3965 18.3271 12.3811 18.3669 12.3809 18.4084V23.67ZM33.6191 25.1479H30.959C31.0214 25.1876 31.0786 25.2361 31.1289 25.2921C31.2132 25.3821 31.28 25.489 31.3256 25.6066C31.3712 25.7243 31.3946 25.8504 31.3945 25.9778V28.3065H33.4727C33.5115 28.3065 33.5487 28.2899 33.5762 28.2605C33.603 28.2307 33.6183 28.1911 33.6191 28.1497V25.1479ZM15.041 25.1479H12.3809V28.1414C12.3812 28.1759 12.3915 28.2094 12.4102 28.2375L12.4238 28.2522C12.4513 28.2816 12.4885 28.2981 12.5273 28.2981H14.6055V25.9778C14.6054 25.8504 14.6289 25.7243 14.6744 25.6066C14.72 25.489 14.7868 25.3821 14.8711 25.2921C14.9214 25.2361 14.9786 25.1876 15.041 25.1479ZM30.0156 26.0321H15.9844V33.5221H30.0156V26.0321Z" fill="white"/>
</g>
<defs>
<clipPath id="clip0_370_2023">
<rect width="24" height="24" fill="white" transform="translate(11 11)"/>
</clipPath>
</defs>
</svg>
