<svg width="25" height="26" viewBox="0 0 25 26" fill="none" xmlns="http://www.w3.org/2000/svg">
<path d="M12.5 0.220657C14.1576 0.220657 15.7473 0.87991 16.9194 2.05339C18.0915 3.22687 18.75 4.81844 18.75 6.47799C18.75 8.13754 18.0915 9.72912 16.9194 10.9026C15.7473 12.0761 14.1576 12.7353 12.5 12.7353C10.8424 12.7353 9.25268 12.0761 8.08058 10.9026C6.90848 9.72912 6.25 8.13754 6.25 6.47799C6.25 4.81844 6.90848 3.22687 8.08058 2.05339C9.25268 0.87991 10.8424 0.220657 12.5 0.220657ZM12.5 15.864C19.4062 15.864 25 18.6642 25 22.1213V25.25H0V22.1213C0 18.6642 5.59375 15.864 12.5 15.864Z" fill="white"/>
</svg>
