<svg width="25" height="26" viewBox="0 0 25 26" fill="none" xmlns="http://www.w3.org/2000/svg">
<path d="M12.4964 0.765271C15.3885 0.764443 18.1914 1.76768 20.4275 3.60401C22.6636 5.44035 24.1945 7.99615 24.7593 10.8359C25.3241 13.6756 24.8879 16.6236 23.525 19.1775C22.1621 21.7313 19.9568 23.733 17.285 24.8414C14.6132 25.9498 11.6402 26.0963 8.87252 25.256C6.10487 24.4158 3.71389 22.6407 2.107 20.2332C0.500108 17.8258 -0.223247 14.935 0.0601966 12.0534C0.34364 9.17186 1.61634 6.47786 3.66143 4.43048C4.82005 3.26663 6.19711 2.34364 7.71337 1.71462C9.22962 1.0856 10.8552 0.762961 12.4964 0.765271ZM13.1188 16.204L10.1697 14.8458C9.85782 15.209 9.44476 15.4709 8.98339 15.5977C8.52202 15.7246 8.03334 15.7107 7.57988 15.5579C7.12642 15.4051 6.72881 15.1203 6.43795 14.74C6.14708 14.3597 5.97619 13.9011 5.94714 13.423C5.91809 12.9448 6.03221 12.4689 6.27488 12.0561C6.51756 11.6433 6.87775 11.3123 7.30937 11.1056C7.74099 10.8989 8.2244 10.8259 8.69772 10.8958C9.17105 10.9658 9.61276 11.1755 9.96633 11.4982L13.0984 10.1889C13.0798 10.0642 13.0703 9.93833 13.07 9.81224C13.07 9.17691 13.3211 8.56739 13.7684 8.11682C14.2158 7.66624 14.8231 7.41122 15.4577 7.40745C15.8444 7.4061 16.2258 7.49819 16.5694 7.6759C16.913 7.85361 17.2088 8.11169 17.4315 8.42825C17.6542 8.74481 17.7973 9.11049 17.8487 9.49426C17.9002 9.87803 17.8583 10.2685 17.7268 10.6327C17.5953 10.9968 17.378 11.3238 17.0933 11.5859C16.8086 11.848 16.465 12.0374 16.0916 12.1382C15.7181 12.2389 15.3259 12.248 14.9483 12.1646C14.5706 12.0812 14.2186 11.9078 13.9221 11.6591L10.7311 12.9826C10.7419 13.075 10.748 13.1666 10.7494 13.2575L14.0666 14.7949C14.505 14.4865 15.0342 14.3345 15.5692 14.3631C16.1042 14.3918 16.6142 14.5995 17.0173 14.9529C17.4203 15.3064 17.6932 15.7851 17.7921 16.3123C17.891 16.8395 17.8102 17.3847 17.5627 17.8605C17.3152 18.3363 16.9153 18.7151 16.4271 18.9361C15.9389 19.1572 15.3907 19.2078 14.8704 19.0797C14.3501 18.9516 13.8878 18.6524 13.5576 18.2299C13.2275 17.8074 13.0486 17.2861 13.0496 16.7497C13.0503 16.566 13.0714 16.3829 13.1127 16.204H13.1188ZM19.9098 5.85584C18.1943 4.13966 15.9375 3.0721 13.5239 2.83505C11.1103 2.59801 8.68935 3.20614 6.67343 4.55584C4.65752 5.90554 3.1714 7.91329 2.4683 10.237C1.7652 12.5607 1.88861 15.0566 2.81752 17.2994C3.74643 19.5423 5.42335 21.3933 7.56256 22.537C9.70177 23.6808 12.1709 24.0465 14.5493 23.572C16.9277 23.0974 19.0681 21.8119 20.6059 19.9345C22.1437 18.057 22.9838 15.7039 22.9829 13.2759C22.9842 11.8974 22.7133 10.5322 22.186 9.25881C21.6586 7.98543 20.885 6.82896 19.9098 5.85584Z" fill="white"/>
</svg>
