<svg width="24" height="25" viewBox="0 0 24 25" fill="none" xmlns="http://www.w3.org/2000/svg">
<g clip-path="url(#clip0_370_2018)">
<path fill-rule="evenodd" clip-rule="evenodd" d="M3.86328 3.62532H13.2324C13.1074 4.07872 13.0273 4.55127 12.9941 5.04084L12.0742 5.03872L13.0137 9.29379H14.0566C14.3066 9.68758 14.5957 10.0494 14.916 10.3751H13.2539L14.0508 13.9916L16.3477 13.651L15.7891 11.1137C16.2559 11.4373 16.7656 11.6949 17.3066 11.8715L17.6562 13.4552L17.8223 13.4297C18.8594 13.2679 18.7891 13.5255 18.8711 12.4612L18.8945 12.1461C18.9473 12.1482 19.002 12.1482 19.0566 12.1482C19.4473 12.1482 19.8281 12.1078 20.1973 12.0312L20.0938 13.4829C19.9922 14.7941 20.0781 14.4769 18.8027 14.6749L7.0918 16.299L7.71094 18.2595C12.791 18.2595 15.248 18.2595 20.3262 18.2595C20.498 18.9555 20.7285 20.0879 20.9004 20.8649H18.8008L18.5996 20.0709C14.3672 20.0709 12.7539 20.0709 8.51953 20.0709C6.20703 20.0283 6.43945 20.7095 5.88477 18.5341L1.9082 2.79091H0V1.28173H3.3457C3.50195 1.91606 3.71875 2.98461 3.86328 3.62532ZM19.0547 0.138672C21.7852 0.138672 24 2.55251 24 5.52829C24 8.50408 21.7852 10.9179 19.0547 10.9179C16.3242 10.9179 14.1094 8.50408 14.1094 5.52829C14.1094 2.55251 16.3242 0.138672 19.0547 0.138672ZM16.8672 5.67091C16.9336 5.25158 17.373 5.01743 17.7188 5.24519C17.75 5.26648 17.7793 5.28989 17.8086 5.31756L17.8105 5.31969C17.9668 5.48147 18.1406 5.65175 18.3125 5.81778L18.4609 5.96253L20.2188 3.95313C20.3242 3.83393 20.4004 3.75517 20.5586 3.71685C21.0977 3.58701 21.4766 4.30648 21.0957 4.74497L18.9043 7.25459C18.6973 7.49512 18.3281 7.51641 18.1074 7.28652C17.9805 7.1588 17.8418 7.02683 17.7031 6.89486C17.4609 6.66497 17.2148 6.43082 17.0137 6.20093C16.8906 6.06896 16.8379 5.85184 16.8672 5.67091ZM9.16406 20.6137C10.0566 20.6137 10.7812 21.4034 10.7812 22.3783C10.7812 23.3532 10.0566 24.1408 9.16406 24.1408C8.26953 24.1408 7.54492 23.3511 7.54492 22.3783C7.54492 21.4034 8.26953 20.6137 9.16406 20.6137ZM15.8379 20.6137C16.7305 20.6137 17.4551 21.4034 17.4551 22.3783C17.4551 23.3532 16.7305 24.1408 15.8379 24.1408C14.9434 24.1408 14.2188 23.3511 14.2188 22.3783C14.2188 21.4034 14.9434 20.6137 15.8379 20.6137ZM5.25781 9.29379H7.83398L6.89844 5.03233C5.97852 5.03233 5.06836 5.0302 4.17969 5.0302L4.49414 6.30523L4.50391 6.30311L5.25781 9.29379ZM8.24609 5.03446L9.18164 9.29379H11.6641L10.7246 5.03659L8.24609 5.03446ZM12.7422 14.1875L11.9023 10.3773H9.41992L10.3359 14.5472L12.7422 14.1875ZM9.02734 14.7388L8.07031 10.3751H5.53125L6.71875 15.0815L9.02734 14.7388Z" fill="#FF9201"/>
</g>
<defs>
<clipPath id="clip0_370_2018">
<rect width="24" height="24" fill="white" transform="translate(0 0.138672)"/>
</clipPath>
</defs>
</svg>
